<svg width="15" height="18" viewBox="0 0 15 18" fill="none" xmlns="http://www.w3.org/2000/svg">
<path fill-rule="evenodd" clip-rule="evenodd" d="M13.8337 15.1065C13.7973 14.0249 12.8973 13.174 11.8153 13.1983C10.7334 13.2226 9.87248 14.113 9.88465 15.1952C9.89681 16.2773 10.7775 17.1482 11.8597 17.1482C12.9684 17.129 13.8519 16.2152 13.8337 15.1065Z" stroke="#23539B" stroke-linecap="round" stroke-linejoin="round"/>
<path fill-rule="evenodd" clip-rule="evenodd" d="M6.92358 8.98151C6.95087 10.645 5.6249 12.0159 3.96141 12.044C2.29839 12.0153 0.97312 10.6446 1.00041 8.98151C0.97312 7.31845 2.29839 5.94776 3.96141 5.91901C5.6249 5.94712 6.95087 7.318 6.92358 8.98151Z" stroke="#23539B" stroke-linecap="round" stroke-linejoin="round"/>
<path fill-rule="evenodd" clip-rule="evenodd" d="M12.8467 2.85648C12.8642 3.57337 12.4917 4.2434 11.8736 4.60697C11.2554 4.97054 10.4888 4.97054 9.87073 4.60697C9.25263 4.2434 8.88013 3.57337 8.89756 2.85648C8.88013 2.13959 9.25263 1.46956 9.87073 1.10599C10.4888 0.74242 11.2554 0.74242 11.8736 1.10599C12.4917 1.46956 12.8642 2.13959 12.8467 2.85648Z" stroke="#23539B" stroke-linecap="round" stroke-linejoin="round"/>
<path d="M10.0889 14.1634C10.3141 14.3231 10.6262 14.2699 10.7859 14.0447C10.9456 13.8194 10.8924 13.5073 10.6672 13.3476L10.0889 14.1634ZM6.58383 10.4531C6.35855 10.2934 6.04646 10.3466 5.88677 10.5718C5.72707 10.7971 5.78024 11.1092 6.00553 11.2689L6.58383 10.4531ZM9.72738 4.57602C9.92898 4.3873 9.93941 4.07089 9.7507 3.86929C9.56198 3.6677 9.24557 3.65726 9.04397 3.84598L9.72738 4.57602ZM5.95697 6.73581C5.75538 6.92453 5.74494 7.24094 5.93366 7.44254C6.12238 7.64413 6.43879 7.65457 6.64038 7.46585L5.95697 6.73581ZM10.6672 13.3476L6.58383 10.4531L6.00553 11.2689L10.0889 14.1634L10.6672 13.3476ZM9.04397 3.84598L5.95697 6.73581L6.64038 7.46585L9.72738 4.57602L9.04397 3.84598Z" fill="#23539B"/>
</svg>
