<svg width="20" height="20" viewBox="0 0 20 20" fill="none" xmlns="http://www.w3.org/2000/svg">
<path fill-rule="evenodd" clip-rule="evenodd" d="M12.4569 0.703072C12.5691 0.45073 12.4554 0.155249 12.2031 0.0430967C11.9507 -0.069055 11.6552 0.0445917 11.5431 0.296934L9.66013 4.53362C9.61751 4.52365 9.57134 4.51483 9.52322 4.50897C9.16929 4.46583 8.78686 4.57597 8.24562 4.88365C8.0716 4.98258 7.84841 5.00073 7.63262 4.92487C6.84038 4.64635 6.14599 4.66161 5.52651 4.93176C4.92731 5.19306 4.45533 5.66879 4.04723 6.19666C3.90282 6.38345 3.62776 6.49329 3.30077 6.46278C2.76597 6.41288 2.30108 6.50903 1.91048 6.72247C1.52334 6.93402 1.23812 7.2448 1.03226 7.58156C0.627979 8.24289 0.5 9.05052 0.5 9.62501C0.5 9.81116 0.601725 9.97354 0.752614 10.0596C0.3148 10.2093 0 10.6244 0 11.1129C0 15.4688 3.53117 19 7.8871 19H7C6.72386 19 6.5 19.2239 6.5 19.5C6.5 19.7761 6.72386 20 7 20H13C13.2761 20 13.5 19.7761 13.5 19.5C13.5 19.2239 13.2761 19 13 19H12.1129C16.4688 19 20 15.4688 20 11.1129C20 10.4983 19.5017 10 18.8871 10H18.091C18.4052 9.47074 18.5752 8.98959 18.6036 8.55109C18.6383 8.01658 18.4594 7.58008 18.1493 7.25492C17.8531 6.94428 17.4616 6.75957 17.092 6.65138C16.8772 6.58851 16.6577 6.5479 16.447 6.52473C16.3752 6.22249 16.2309 5.96518 16.0179 5.76099C15.7135 5.46903 15.3198 5.33489 14.9476 5.28029C14.5974 5.22894 14.2244 5.24172 13.8719 5.28848L16.2079 1.01512C16.3403 0.772813 16.2513 0.469014 16.0089 0.336565C15.7666 0.204116 15.4628 0.293171 15.3304 0.535476L10.5613 9.26018C10.4288 9.50249 10.5179 9.80629 10.7602 9.93874C10.8333 9.97869 10.912 9.99849 10.9899 10H10H1.33074C1.43454 9.90839 1.5 9.77434 1.5 9.62501C1.5 9.16454 1.60811 8.55683 1.88546 8.10313C2.02041 7.88238 2.18738 7.71072 2.39 7.6C2.58916 7.49117 2.8516 7.42522 3.20787 7.45846C3.77887 7.51173 4.43113 7.33504 4.83836 6.8083C5.20698 6.33151 5.55408 6.01069 5.92624 5.84839C6.27812 5.69495 6.70737 5.65958 7.30096 5.86827C7.76226 6.03044 8.2899 6.00877 8.73982 5.753C9.21355 5.48369 9.36576 5.49718 9.40223 5.50162C9.43345 5.50543 9.45387 5.51214 9.52475 5.53544L9.56724 5.54937C9.6664 5.58175 9.8114 5.625 10 5.625C10.2761 5.625 10.5 5.40114 10.5 5.125C10.5 5.11892 10.4999 5.11287 10.4997 5.10685L12.4569 0.703072ZM15.5 7C15.5 6.7128 15.4149 6.56817 15.3258 6.48275C15.224 6.38512 15.0552 6.30677 14.8024 6.2697C14.316 6.19836 13.6965 6.30607 13.2377 6.44871L11.4387 9.73982C11.3496 9.90296 11.1827 9.99663 11.0092 10H16.9999C16.9999 9.90455 17.0271 9.80803 17.084 9.72265C17.4574 9.16252 17.588 8.76001 17.6057 8.48641C17.6221 8.23343 17.5447 8.06993 17.4257 7.94508C17.2928 7.80573 17.0821 7.69044 16.8111 7.61112C16.5441 7.53297 16.2528 7.5 16 7.5C15.7239 7.5 15.5 7.27615 15.5 7C15.5 7 15.5 7 15.5 7ZM7.8871 18H11H12.1129C15.9165 18 19 14.9165 19 11.1129C19 11.0506 18.9495 11 18.8871 11H10H1.1129C1.05055 11 1 11.0506 1 11.1129C1 14.9165 4.08346 18 7.8871 18Z" fill="#24549C"/>
</svg>
