<svg width="16" height="18" viewBox="0 0 16 18" fill="none" xmlns="http://www.w3.org/2000/svg">
<path fill-rule="evenodd" clip-rule="evenodd" d="M10.8898 11.3333H5.11009C3.40902 11.4178 1.90195 12.4568 1.21809 14.0166C0.393257 15.636 2.03942 17.1666 3.95392 17.1666H12.0459C13.9616 17.1666 15.6078 15.636 14.7818 14.0166C14.0979 12.4568 12.5908 11.4178 10.8898 11.3333Z" stroke="#23539B" stroke-linecap="round" stroke-linejoin="round"/>
<path fill-rule="evenodd" clip-rule="evenodd" d="M11.5 4.33331C11.5 6.26631 9.933 7.83331 8 7.83331C6.067 7.83331 4.5 6.26631 4.5 4.33331C4.5 2.40032 6.067 0.833313 8 0.833313C8.92826 0.833313 9.8185 1.20206 10.4749 1.85844C11.1313 2.51482 11.5 3.40506 11.5 4.33331Z" stroke="#23539B" stroke-linecap="round" stroke-linejoin="round"/>
</svg>
