<svg width="22" height="18" viewBox="0 0 22 18" fill="none" xmlns="http://www.w3.org/2000/svg">
<path d="M7.7 17.1667C7.7 17.4429 7.92386 17.6667 8.2 17.6667C8.47614 17.6667 8.7 17.4429 8.7 17.1667H7.7ZM8.2 14.5639L7.70036 14.5448C7.70012 14.5512 7.7 14.5575 7.7 14.5639H8.2ZM11 11.9622L10.9824 12.4619C10.9941 12.4623 11.0059 12.4623 11.0176 12.4619L11 11.9622ZM13.8 14.5639H14.3C14.3 14.5575 14.2999 14.5512 14.2996 14.5448L13.8 14.5639ZM13.3 17.1667C13.3 17.4429 13.5239 17.6667 13.8 17.6667C14.0761 17.6667 14.3 17.4429 14.3 17.1667H13.3ZM8.2 16.6667C7.92386 16.6667 7.7 16.8906 7.7 17.1667C7.7 17.4429 7.92386 17.6667 8.2 17.6667V16.6667ZM13.8 17.6667C14.0761 17.6667 14.3 17.4429 14.3 17.1667C14.3 16.8906 14.0761 16.6667 13.8 16.6667V17.6667ZM8.2 17.6667C8.47614 17.6667 8.7 17.4429 8.7 17.1667C8.7 16.8906 8.47614 16.6667 8.2 16.6667V17.6667ZM7.5 17.1667V16.6667C7.49413 16.6667 7.48826 16.6668 7.4824 16.667L7.5 17.1667ZM3.3 13.2631H2.8C2.8 13.2694 2.80012 13.2757 2.80036 13.282L3.3 13.2631ZM3.8 5.4394C3.8 5.16325 3.57614 4.9394 3.3 4.9394C3.02386 4.9394 2.8 5.16325 2.8 5.4394H3.8ZM0.219199 6.92619C-0.00928348 7.08127 -0.0687858 7.39221 0.0862964 7.6207C0.241379 7.84918 0.552319 7.90868 0.780801 7.7536L0.219199 6.92619ZM3.5808 5.8531C3.80928 5.69802 3.86879 5.38708 3.7137 5.15859C3.55862 4.93011 3.24768 4.87061 3.0192 5.02569L3.5808 5.8531ZM3.01922 5.02568C2.79073 5.18075 2.73121 5.49169 2.88628 5.72018C3.04135 5.94867 3.35229 6.00818 3.58078 5.85311L3.01922 5.02568ZM9.38533 1.3094L9.114 0.889269L9.10455 0.895679L9.38533 1.3094ZM12.6147 1.3094L12.8955 0.895571L12.8859 0.889378L12.6147 1.3094ZM18.4192 5.85311C18.6477 6.00818 18.9586 5.94867 19.1137 5.72018C19.2688 5.49169 19.2093 5.18075 18.9808 5.02568L18.4192 5.85311ZM13.8 16.6667C13.5239 16.6667 13.3 16.8906 13.3 17.1667C13.3 17.4429 13.5239 17.6667 13.8 17.6667V16.6667ZM14.5 17.1667L14.5176 16.667C14.5117 16.6668 14.5059 16.6667 14.5 16.6667V17.1667ZM18.7 13.2631L19.1996 13.282C19.1999 13.2757 19.2 13.2694 19.2 13.2631H18.7ZM19.2 5.4394C19.2 5.16325 18.9761 4.9394 18.7 4.9394C18.4239 4.9394 18.2 5.16325 18.2 5.4394H19.2ZM21.2193 7.75251C21.4478 7.90753 21.7588 7.84794 21.9138 7.61941C22.0688 7.39089 22.0092 7.07996 21.7807 6.92495L21.2193 7.75251ZM18.9807 5.02561C18.7522 4.87059 18.4412 4.93019 18.2862 5.15871C18.1312 5.38724 18.1908 5.69816 18.4193 5.85318L18.9807 5.02561ZM8.7 17.1667V14.5639H7.7V17.1667H8.7ZM8.69964 14.583C8.74606 13.3677 9.76699 12.4191 10.9824 12.4619L11.0176 11.4625C9.25142 11.4003 7.76783 12.7788 7.70036 14.5448L8.69964 14.583ZM11.0176 12.4619C12.233 12.4191 13.2539 13.3677 13.3004 14.583L14.2996 14.5448C14.2322 12.7788 12.7486 11.4003 10.9824 11.4625L11.0176 12.4619ZM13.3 14.5639V17.1667H14.3V14.5639H13.3ZM8.2 17.6667H13.8V16.6667H8.2V17.6667ZM8.2 16.6667H7.5V17.6667H8.2V16.6667ZM7.4824 16.667C5.52122 16.7361 3.87399 15.2051 3.79964 13.2441L2.80036 13.282C2.89559 15.7938 5.00552 17.7549 7.5176 17.6664L7.4824 16.667ZM3.8 13.2631V5.4394H2.8V13.2631H3.8ZM0.780801 7.7536L3.5808 5.8531L3.0192 5.02569L0.219199 6.92619L0.780801 7.7536ZM3.58078 5.85311L9.66612 1.72311L9.10455 0.895679L3.01922 5.02568L3.58078 5.85311ZM9.6566 1.72941C10.4743 1.20128 11.5257 1.20128 12.3434 1.72941L12.8859 0.889378C11.7379 0.147958 10.2621 0.147958 9.11407 0.889378L9.6566 1.72941ZM12.3339 1.72311L18.4192 5.85311L18.9808 5.02568L12.8954 0.895679L12.3339 1.72311ZM13.8 17.6667H14.5V16.6667H13.8V17.6667ZM14.4824 17.6664C16.9945 17.7549 19.1044 15.7938 19.1996 13.282L18.2004 13.2441C18.126 15.2051 16.4788 16.7361 14.5176 16.667L14.4824 17.6664ZM19.2 13.2631V5.4394H18.2V13.2631H19.2ZM21.7807 6.92495L18.9807 5.02561L18.4193 5.85318L21.2193 7.75251L21.7807 6.92495Z" fill="#23539B"/>
</svg>
