<?xml version="1.0" standalone="no"?>
<!DOCTYPE svg PUBLIC "-//W3C//DTD SVG 20010904//EN"
 "http://www.w3.org/TR/2001/REC-SVG-20010904/DTD/svg10.dtd">
<svg version="1.0" xmlns="http://www.w3.org/2000/svg"
 width="90.000000pt" height="90.000000pt" viewBox="0 0 90.000000 90.000000"
 preserveAspectRatio="xMidYMid meet">

<g transform="translate(0.000000,90.000000) scale(0.100000,-0.100000)"
fill="#000000" stroke="none">
<path d="M430 700 c0 -24 -4 -30 -20 -30 -70 0 -180 -110 -180 -180 0 -16 -6
-20 -30 -20 -23 0 -30 -4 -30 -20 0 -16 7 -20 30 -20 24 0 30 -4 30 -20 0 -70
110 -180 180 -180 16 0 20 -6 20 -30 0 -23 4 -30 20 -30 16 0 20 7 20 30 0 24
4 30 20 30 70 0 180 110 180 180 0 16 6 20 30 20 23 0 30 4 30 20 0 16 -7 20
-30 20 -24 0 -30 4 -30 20 0 70 -110 180 -180 180 -16 0 -20 6 -20 30 0 23 -4
30 -20 30 -16 0 -20 -7 -20 -30z m93 -84 c174 -74 122 -346 -67 -346 -125 0
-205 99 -182 225 8 42 58 103 101 121 39 17 108 17 148 0z"/>
<path d="M398 544 c-30 -16 -58 -61 -58 -94 0 -53 57 -110 110 -110 53 0 110
57 110 110 0 34 -28 78 -60 95 -36 19 -67 19 -102 -1z m77 -34 c52 -20 52
-100 0 -120 -55 -21 -106 30 -85 85 8 21 24 33 57 44 1 1 13 -3 28 -9z"/>
</g>
</svg>
