<svg width="48" height="48" viewBox="0 0 48 48" fill="none" xmlns="http://www.w3.org/2000/svg">
<g filter="url(#filter0_d_237_1053)">
<rect x="2" y="2" width="40" height="40" rx="20" fill="white" fill-opacity="0.8" shape-rendering="crispEdges"/>
</g>
<path fill-rule="evenodd" clip-rule="evenodd" d="M15.1949 22C15.1956 18.7535 17.4893 15.9596 20.6735 15.3268C23.8577 14.694 27.0455 16.3985 28.2874 19.3981C29.5292 22.3976 28.4794 25.8567 25.7798 27.6599C23.0802 29.4632 19.4827 29.1083 17.1874 26.8125C15.9113 25.536 15.1946 23.8049 15.1949 22V22Z" stroke="black" stroke-width="1.4" stroke-linecap="round" stroke-linejoin="round"/>
<path fill-rule="evenodd" clip-rule="evenodd" d="M19.0837 22C19.0841 20.6087 20.0672 19.4115 21.4318 19.1404C22.7964 18.8693 24.1624 19.5999 24.6945 20.8854C25.2266 22.1709 24.7766 23.6532 23.6197 24.4259C22.4627 25.1986 20.9211 25.0464 19.9375 24.0625C19.3906 23.5154 19.0835 22.7735 19.0837 22V22Z" stroke="black" stroke-width="1.4" stroke-linecap="round" stroke-linejoin="round"/>
<path d="M28.805 21.3C28.4184 21.3 28.105 21.6134 28.105 22C28.105 22.3866 28.4184 22.7 28.805 22.7V21.3ZM30.75 22.7C31.1366 22.7 31.45 22.3866 31.45 22C31.45 21.6134 31.1366 21.3 30.75 21.3V22.7ZM13.25 21.3C12.8634 21.3 12.55 21.6134 12.55 22C12.55 22.3866 12.8634 22.7 13.25 22.7V21.3ZM15.195 22.7C15.5816 22.7 15.895 22.3866 15.895 22C15.895 21.6134 15.5816 21.3 15.195 21.3V22.7ZM21.3 15.195C21.3 15.5816 21.6134 15.895 22 15.895C22.3866 15.895 22.7 15.5816 22.7 15.195H21.3ZM22.7 13.25C22.7 12.8634 22.3866 12.55 22 12.55C21.6134 12.55 21.3 12.8634 21.3 13.25H22.7ZM21.3 30.75C21.3 31.1366 21.6134 31.45 22 31.45C22.3866 31.45 22.7 31.1366 22.7 30.75H21.3ZM22.7 28.805C22.7 28.4184 22.3866 28.105 22 28.105C21.6134 28.105 21.3 28.4184 21.3 28.805H22.7ZM28.805 22.7H30.75V21.3H28.805V22.7ZM13.25 22.7H15.195V21.3H13.25V22.7ZM22.7 15.195V13.25H21.3V15.195H22.7ZM22.7 30.75V28.805H21.3V30.75H22.7Z" fill="black"/>
<defs>
<filter id="filter0_d_237_1053" x="0" y="0" width="48" height="48" filterUnits="userSpaceOnUse" color-interpolation-filters="sRGB">
<feFlood flood-opacity="0" result="BackgroundImageFix"/>
<feColorMatrix in="SourceAlpha" type="matrix" values="0 0 0 0 0 0 0 0 0 0 0 0 0 0 0 0 0 0 127 0" result="hardAlpha"/>
<feOffset dx="2" dy="2"/>
<feGaussianBlur stdDeviation="2"/>
<feComposite in2="hardAlpha" operator="out"/>
<feColorMatrix type="matrix" values="0 0 0 0 0 0 0 0 0 0 0 0 0 0 0 0 0 0 0.25 0"/>
<feBlend mode="normal" in2="BackgroundImageFix" result="effect1_dropShadow_237_1053"/>
<feBlend mode="normal" in="SourceGraphic" in2="effect1_dropShadow_237_1053" result="shape"/>
</filter>
</defs>
</svg>
