<svg width="30" height="30" viewBox="0 0 30 30" fill="none" xmlns="http://www.w3.org/2000/svg">
<rect x="29.5" y="29.5" width="29" height="29" rx="3.5" transform="rotate(-180 29.5 29.5)" fill="white"/>
<path d="M12.0501 15.5917L16.7667 20.3C16.8442 20.3781 16.9364 20.4401 17.0379 20.4824C17.1395 20.5247 17.2484 20.5465 17.3584 20.5465C17.4684 20.5465 17.5773 20.5247 17.6789 20.4824C17.7804 20.4401 17.8726 20.3781 17.9501 20.3C18.1053 20.1439 18.1924 19.9327 18.1924 19.7125C18.1924 19.4924 18.1053 19.2811 17.9501 19.125L13.8251 14.9583L17.9501 10.8333C18.1053 10.6772 18.1924 10.466 18.1924 10.2458C18.1924 10.0257 18.1053 9.81448 17.9501 9.65834C17.8729 9.5796 17.7808 9.51696 17.6793 9.47405C17.5777 9.43113 17.4686 9.4088 17.3584 9.40834C17.2481 9.4088 17.1391 9.43113 17.0375 9.47405C16.9359 9.51696 16.8439 9.5796 16.7667 9.65834L12.0501 14.3667C11.9655 14.4447 11.898 14.5394 11.8518 14.6448C11.8056 14.7503 11.7818 14.8641 11.7818 14.9792C11.7818 15.0943 11.8056 15.2081 11.8518 15.3135C11.898 15.4189 11.9655 15.5136 12.0501 15.5917Z" fill="#CBCBCB"/>
<rect x="29.5" y="29.5" width="29" height="29" rx="3.5" transform="rotate(-180 29.5 29.5)" stroke="#CBCBCB"/>
</svg>
