<svg width="30" height="30" viewBox="0 0 30 30" fill="none" xmlns="http://www.w3.org/2000/svg">
<rect x="0.5" y="0.5" width="29" height="29" rx="3.5" fill="white"/>
<path d="M17.9499 14.4083L13.2333 9.69999C13.1558 9.62188 13.0636 9.55989 12.9621 9.51758C12.8605 9.47527 12.7516 9.45349 12.6416 9.45349C12.5316 9.45349 12.4227 9.47527 12.3211 9.51758C12.2196 9.55989 12.1274 9.62188 12.0499 9.69999C11.8947 9.85613 11.8076 10.0673 11.8076 10.2875C11.8076 10.5076 11.8947 10.7189 12.0499 10.875L16.1749 15.0417L12.0499 19.1667C11.8947 19.3228 11.8076 19.534 11.8076 19.7542C11.8076 19.9743 11.8947 20.1855 12.0499 20.3417C12.1271 20.4204 12.2192 20.483 12.3207 20.526C12.4223 20.5689 12.5314 20.5912 12.6416 20.5917C12.7519 20.5912 12.8609 20.5689 12.9625 20.526C13.0641 20.483 13.1561 20.4204 13.2333 20.3417L17.9499 15.6333C18.0345 15.5553 18.102 15.4606 18.1482 15.3552C18.1944 15.2497 18.2182 15.1359 18.2182 15.0208C18.2182 14.9057 18.1944 14.7919 18.1482 14.6865C18.102 14.5811 18.0345 14.4864 17.9499 14.4083Z" fill="#CBCBCB"/>
<rect x="0.5" y="0.5" width="29" height="29" rx="3.5" stroke="#CBCBCB"/>
</svg>
