<svg width="20" height="28" viewBox="0 0 20 28" fill="none" xmlns="http://www.w3.org/2000/svg">
<path fill-rule="evenodd" clip-rule="evenodd" d="M2.92876 2.89513C-0.976252 6.76521 -0.976252 13.0057 2.92876 16.8758L10 28L17.0712 16.8772C20.9763 13.0071 20.9763 6.76661 17.0712 2.89653C15.2015 1.04302 12.656 0.000263687 10.0003 5.00027e-08C7.34462 -0.000263587 4.79885 1.04199 2.92876 2.89513Z" fill="#24549C"/>
<path d="M2.28572 9.8C2.28572 13.9753 5.73952 17.36 10 17.36C14.2605 17.36 17.7143 13.9753 17.7143 9.8C17.7143 5.62473 14.2605 2.24 10 2.24C5.73952 2.24 2.28572 5.62473 2.28572 9.8Z" fill="white"/>
<path fill-rule="evenodd" clip-rule="evenodd" d="M4.56406 10.5966L9.38525 15.4563C9.6811 15.7546 10.1608 15.7546 10.4566 15.4563L15.2778 10.5966C15.5737 10.2984 15.5737 9.81486 15.2778 9.51664C14.982 9.21842 14.5023 9.21842 14.2064 9.51664L10.6785 13.0728V4.12364C10.6785 3.70189 10.3393 3.36 9.92094 3.36C9.50254 3.36 9.16336 3.70189 9.16336 4.12364V13.0728L5.63544 9.51664C5.33959 9.21842 4.85992 9.21842 4.56406 9.51664C4.26821 9.81486 4.26821 10.2984 4.56406 10.5966Z" fill="#24549C"/>
</svg>
