<svg width="34" height="15" viewBox="0 0 34 15" fill="none" xmlns="http://www.w3.org/2000/svg">
<rect width="34" height="15" rx="2" fill="#FF3C3C"/>
<path d="M12.7348 8.59766C14.5951 8.59766 15.7768 9.18359 15.7816 10.1895C15.7768 11.1855 14.5951 11.7715 12.7348 11.7715C10.8744 11.7715 9.69277 11.1855 9.69766 10.1895C9.69277 9.18359 10.8744 8.59766 12.7348 8.59766ZM8.81875 7.78711V7.16211H12.0902V5.48242H12.8422V7.16211H16.7191V7.78711H8.81875ZM9.75625 4.18359V3.55859H15.7133V4.29102C15.7084 4.99414 15.7084 5.69727 15.4691 6.5957L14.7172 6.50781C14.9516 5.61426 14.9516 4.96973 14.9516 4.29102V4.18359H9.75625ZM10.4594 10.1895C10.4545 10.7949 11.3529 11.166 12.7348 11.166C14.1215 11.166 15.0102 10.7949 15.0199 10.1895C15.0102 9.56934 14.1215 9.18848 12.7348 9.18359C11.3529 9.18848 10.4545 9.56934 10.4594 10.1895ZM20.357 5.77539C20.3619 7.25 21.4313 8.74902 22.7105 9.30078L22.2809 9.90625C21.2652 9.44727 20.3912 8.44629 19.9859 7.24512C19.5807 8.51953 18.7018 9.62305 17.7105 10.1211L17.2516 9.51562C18.4967 8.91992 19.5807 7.2793 19.5855 5.77539V4.64258H17.5348V4.00781H22.4273V4.64258H20.357V5.77539ZM23.6383 11.791V3.10938H24.4098V11.791H23.6383Z" fill="white"/>
</svg>
