<svg width="14" height="18" viewBox="0 0 14 18" fill="none" xmlns="http://www.w3.org/2000/svg">
<path fill-rule="evenodd" clip-rule="evenodd" d="M7 17.4098C3.44329 17.4098 0.559999 14.3712 0.559999 10.623C0.559999 6.87466 3.44329 3.83607 7 3.83607C10.5567 3.83607 13.44 6.87466 13.44 10.623C13.44 14.3712 10.5567 17.4098 7 17.4098ZM7 18C3.13401 18 0 14.6972 0 10.623C0 6.54872 3.13401 3.2459 7 3.2459C10.866 3.2459 14 6.54872 14 10.623C14 14.6972 10.866 18 7 18Z" fill="#432A75"/>
<path d="M1.68 10.623C1.68 13.7194 4.06184 16.2295 7 16.2295C9.93815 16.2295 12.32 13.7194 12.32 10.623C12.32 7.52654 9.93815 5.01639 7 5.01639C4.06184 5.01639 1.68 7.52654 1.68 10.623Z" fill="#432A75"/>
<path d="M7 0L5.0601 3.54098H8.9399L7 0Z" fill="#432A75"/>
</svg>
