<svg width="18" height="14" viewBox="0 0 18 14" fill="none" xmlns="http://www.w3.org/2000/svg">
<path d="M17.2667 6.95229C15.5834 3.04396 12.4167 0.618958 9.00006 0.618958C5.58339 0.618958 2.41672 3.04396 0.733389 6.95229C0.687503 7.05743 0.663818 7.17091 0.663818 7.28562C0.663818 7.40034 0.687503 7.51382 0.733389 7.61896C2.41672 11.5273 5.58339 13.9523 9.00006 13.9523C12.4167 13.9523 15.5834 11.5273 17.2667 7.61896C17.3126 7.51382 17.3363 7.40034 17.3363 7.28562C17.3363 7.17091 17.3126 7.05743 17.2667 6.95229ZM9.00006 12.2856C6.35006 12.2856 3.85839 10.3773 2.41672 7.28562C3.85839 4.19396 6.35006 2.28562 9.00006 2.28562C11.6501 2.28562 14.1417 4.19396 15.5834 7.28562C14.1417 10.3773 11.6501 12.2856 9.00006 12.2856ZM9.00006 3.95229C8.34078 3.95229 7.69632 4.14779 7.14816 4.51406C6.59999 4.88033 6.17275 5.40093 5.92046 6.01001C5.66816 6.6191 5.60215 7.28932 5.73077 7.93593C5.85939 8.58253 6.17686 9.17647 6.64303 9.64265C7.10921 10.1088 7.70315 10.4263 8.34975 10.5549C8.99636 10.6835 9.66658 10.6175 10.2757 10.3652C10.8848 10.1129 11.4053 9.68569 11.7716 9.13752C12.1379 8.58936 12.3334 7.9449 12.3334 7.28562C12.3334 6.40157 11.9822 5.55372 11.3571 4.9286C10.732 4.30348 9.88411 3.95229 9.00006 3.95229ZM9.00006 8.95229C8.67042 8.95229 8.34819 8.85454 8.07411 8.67141C7.80002 8.48827 7.5864 8.22797 7.46026 7.92343C7.33411 7.61889 7.3011 7.28378 7.36541 6.96047C7.42972 6.63717 7.58846 6.3402 7.82154 6.10711C8.05463 5.87403 8.3516 5.71529 8.6749 5.65098C8.99821 5.58667 9.33332 5.61968 9.63786 5.74582C9.9424 5.87197 10.2027 6.08559 10.3858 6.35967C10.569 6.63376 10.6667 6.95599 10.6667 7.28562C10.6667 7.72765 10.4911 8.15157 10.1786 8.46414C9.86601 8.7767 9.44208 8.95229 9.00006 8.95229Z" fill="white"/>
</svg>
